<?xml version="1.0" encoding="UTF-8" standalone="no"?>
<svg
   xmlns:dc="http://purl.org/dc/elements/1.1/"
   xmlns:cc="http://creativecommons.org/ns#"
   xmlns:rdf="http://www.w3.org/1999/02/22-rdf-syntax-ns#"
   xmlns:svg="http://www.w3.org/2000/svg"
   xmlns="http://www.w3.org/2000/svg"
   xmlns:sodipodi="http://sodipodi.sourceforge.net/DTD/sodipodi-0.dtd"
   xmlns:inkscape="http://www.inkscape.org/namespaces/inkscape"
   width="191.36499mm"
   height="191.36499mm"
   viewBox="0 0 191.36499 191.36499"
   version="1.1"
   id="svg8"
   inkscape:version="1.0.2-2 (e86c870879, 2021-01-15)"
   sodipodi:docname="dessin-02.svg">
  <defs
     id="defs2">
    <filter
       inkscape:collect="always"
       style="color-interpolation-filters:sRGB"
       id="filter883"
       x="-0.00011534145"
       width="1.0002307"
       y="-0.0001959173"
       height="1.0003918">
      <feGaussianBlur
         inkscape:collect="always"
         stdDeviation="0.021907646"
         id="feGaussianBlur885" />
    </filter>
  </defs>
  <sodipodi:namedview
     id="base"
     pagecolor="#ffffff"
     bordercolor="#666666"
     borderopacity="1.0"
     inkscape:pageopacity="0.0"
     inkscape:pageshadow="2"
     inkscape:zoom="0.49497475"
     inkscape:cx="-80.391267"
     inkscape:cy="491.24455"
     inkscape:document-units="mm"
     inkscape:current-layer="layer1"
     inkscape:document-rotation="0"
     showgrid="false"
     inkscape:window-width="1920"
     inkscape:window-height="1001"
     inkscape:window-x="2391"
     inkscape:window-y="-9"
     inkscape:window-maximized="1" />
  <metadata
     id="metadata5">
    <rdf:RDF>
      <cc:Work
         rdf:about="">
        <dc:format>image/svg+xml</dc:format>
        <dc:type
           rdf:resource="http://purl.org/dc/dcmitype/StillImage" />
        <dc:title></dc:title>
      </cc:Work>
    </rdf:RDF>
  </metadata>
  <g
     inkscape:label="Calque 1"
     inkscape:groupmode="layer"
     id="layer1"
     style="filter:url(#filter883)"
     transform="translate(-11.754478,-5.7026062)">
    <g
       id="g1008">
      <circle
         style="fill:#ffd239;fill-opacity:1;stroke-width:0.244509"
         id="path889"
         cx="107.43697"
         cy="101.3851"
         r="95.682495" />
      <path
         style="fill:#ffffff;stroke:none;stroke-width:0.235624px;stroke-linecap:butt;stroke-linejoin:miter;stroke-opacity:1"
         d="m 91.145415,41.975564 c 2.692845,-0.504909 7.068719,1.346424 9.256645,2.35624 2.18795,1.009816 9.25666,-1.17812 10.43479,-1.683029 1.17812,-0.504908 5.04908,-2.187936 6.2272,-1.514726 1.17813,0.673211 2.18794,3.53436 2.01964,4.71248 -0.16831,1.17812 -4.20757,6.143052 -5.80645,6.479662 -1.59888,0.3366 -6.31136,0.84151 -7.15287,0.84151 -0.84152,0 -5.554,-0.58906 -6.816266,-0.84151 -1.26227,-0.25246 -2.18794,-0.1683 -3.534361,-1.09397 -1.346423,-0.92567 -3.534359,-1.17812 -4.123419,-3.029453 -0.589059,-1.85133 -2.272089,-5.553993 -0.504909,-6.227204 z"
         id="path911" />
      <path
         style="fill:#e7b6a5;fill-opacity:1;stroke:none;stroke-width:0.235624px;stroke-linecap:butt;stroke-linejoin:miter;stroke-opacity:1"
         d="m 105.95606,75.636131 c 0,0 7.65779,-0.0842 8.75176,-0.75736 1.09396,-0.67322 4.46003,-4.29172 4.62832,-5.04909 0.16831,-0.75736 1.68304,-5.63814 1.68304,-6.64796 0,-1.00982 -0.33661,-6.81627 -0.50492,-8.16269 -0.1683,-1.34642 -1.51472,-4.62832 -1.51472,-4.62832 l -3.36606,0.0841 c 0,0 -5.38569,2.6087 -8.1627,3.11361 -2.77699,0.5049 -3.70265,0.75736 -6.0589,-0.0842 -2.356226,-0.84152 -4.880775,-2.10379 -5.553986,-2.35624 -0.673209,-0.25246 -3.786814,-1.93548 -4.375873,-1.85133 -0.589061,0.0842 -2.86115,1.59887 -2.86115,1.59887 l -0.168301,11.44459 v 6.64797 c 0,0 2.861149,3.45021 3.197754,3.87096 0.336606,0.42076 6.81626,4.37588 7.15287,4.37588 0.3366,0 7.152866,-1.59888 7.152866,-1.59888 z"
         id="path950" />
      <path
         id="path956"
         style="fill:#b3b3b3;fill-opacity:1;stroke:none;stroke-width:0.291903"
         d="m 171.93635,72.010711 -0.006,0.003 -16.64785,3.70417 -19.27928,6.18835 -11.30581,2.61856 -9.28276,1.54674 -6.30708,1.30928 -6.54547,5.11746 -12.020037,16.422799 4.760339,11.425 -2.498903,10.59158 -2.38017,5.11745 -0.709174,4.37745 -4.622277,6.3416 a 68.302634,63.669317 0 0 0 20.199232,2.84774 68.302634,63.669317 0 0 0 68.30287,-63.669089 68.302634,63.669317 0 0 0 -1.65811,-13.94232 z" />
      <path
         id="path954-9"
         style="fill:#ffffff;stroke-width:0.999999;filter:url(#filter883)"
         d="m 1403.3438,1031.752 -16.25,0.7187 c -8.9375,0.3949 -16.5213,0.8732 -16.8536,1.0645 -0.3321,0.1913 -0.925,9.4761 -1.3164,20.6308 -0.3913,11.1548 -1.3512,30.6313 -2.1347,43.2813 -0.7836,12.65 -1.4318,26.0426 -1.4356,29.7617 v 0 l -0.012,6.7617 17.25,-0.6406 c 9.4874,-0.3517 17.5334,-0.9193 17.8789,-1.2617 0.3454,-0.3425 1.0507,-14.7961 1.5683,-32.1211 0.8429,-28.2138 1.1511,-31.9695 2.959,-36 2.4317,-5.4214 4.4654,-7.2639 7.5391,-6.8282 1.7528,0.2485 2.7289,1.526 4.0781,5.3282 1.5472,4.3597 1.7106,7.5608 1.2773,25 -0.3135,12.6177 -1.1957,24.2448 -2.3906,31.5 -1.0417,6.325 -1.7871,11.6267 -1.6582,11.7832 0.129,0.1565 9.255,0.5649 20.2813,0.9062 l 20.0468,0.6192 0.6992,-4.6524 c 1.279,-8.5287 -0.1586,-59.4546 -1.8906,-66.9922 -4.4884,-19.533 -13.264,-28.6211 -27.6386,-28.6211 -7.4319,0 -12.6892,1.9887 -18.3145,6.9278 l -3.6855,3.2363 v -5.2012 z m -474.63872,0.3144 c -10.09068,-0.1007 -17.7661,1.0476 -28.11133,4.0606 l -7.25,2.1113 v 46.4043 46.4062 l 3.36719,1.4063 c 3.56145,1.4881 14.76249,4.1329 20.63281,4.8711 7.10366,0.8933 29.56312,-0.3285 35.44531,-1.9278 7.38535,-2.0079 14.38935,-5.5176 17.17188,-8.6035 2.33764,-2.5925 6.39534,-15.0333 6.36133,-19.5039 -0.0291,-3.7715 -3.43887,-11.1498 -6.78711,-14.6875 -1.4801,-1.5638 -4.89312,-3.9671 -7.58399,-5.3398 l -4.89258,-2.4961 4.22266,-2.3965 c 8.19451,-4.6546 11.64236,-11.6222 10.82031,-21.8633 -1.43002,-17.8148 -14.49728,-27.3259 -38.91015,-28.3242 -1.55496,-0.064 -3.04481,-0.1028 -4.48633,-0.1172 z m 270.02152,0.1328 c -4.7677,0.086 -8.8374,2.0928 -13.5762,6.5254 l -4.8066,4.4961 v -3.9258 -3.9258 l -9.75,0.2969 c -5.3625,0.1627 -13.0126,0.5552 -17,0.8731 l -7.25,0.5781 v 9.164 c 0,12.016 -1.6136,37.1136 -4.043,62.9415 -1.0748,11.4272 -1.955,21.6647 -1.955,22.75 0,1.8907 0.7481,1.9746 17.8828,1.9746 h 17.8808 l 0.6602,-26.25 c 1.0035,-39.9428 1.5474,-44.6047 5.6445,-48.3125 1.7419,-1.5764 2.1778,-1.6211 3.4453,-0.3536 3.7914,3.7914 4.6083,28.3645 1.8516,55.6934 -0.9033,8.9528 -1.4678,16.4488 -1.2539,16.6582 0.2138,0.2094 7.5585,0.085 16.3203,-0.2773 l 15.9297,-0.6582 0.8594,-3 c 0.4721,-1.65 1.1217,-16.275 1.4453,-32.5 0.6133,-30.7534 1.1713,-34.7738 5.123,-36.8887 3.407,-1.8234 5.0375,1.4033 6.2637,12.4004 1.1349,10.1785 0.2399,30.2606 -2.2168,49.7695 -0.608,4.83 -0.8501,9.0383 -0.5371,9.3516 0.3131,0.3129 8.3306,0.1848 17.8164,-0.2832 l 17.248,-0.8496 0.8633,-3 c 1.5206,-5.2809 2.1643,-50.1156 0.8594,-59.8477 -2.0972,-15.6404 -7.0736,-25.2167 -15.7422,-30.2969 -3.9591,-2.3202 -5.9011,-2.7816 -11.791,-2.7929 -7.9328,-0.017 -12.9369,2.0265 -17.9903,7.3457 -1.6154,1.7003 -3.2576,3.0918 -3.6503,3.0918 -0.3928,0 -1.6266,-1.5486 -2.7422,-3.4395 -2.3984,-4.0649 -5.975,-6.1093 -12.3575,-7.0664 -1.1912,-0.1786 -2.3294,-0.262 -3.4296,-0.2422 z m -155.7383,1.5313 -17.5723,0.7226 c -9.6647,0.3974 -18.6414,0.783 -19.9492,0.8574 -2.2361,0.1272 -2.9609,2.0737 -12.13672,32.6368 -17.39358,57.9352 -18.80603,62.9938 -17.61914,63.0898 0.62309,0.051 8.55782,0.8566 17.63281,1.791 9.07495,0.9345 16.72485,1.546 17.00005,1.3574 0.2749,-0.1885 1.4,-3.8071 2.5,-8.041 l 2,-7.6972 7.6933,-0.2911 c 8.83,-0.334 8.7609,-0.3926 10.8731,9.1407 0.713,3.2181 1.9161,6.0902 2.6738,6.3808 1.639,0.629 31.7375,-2.7903 33.3535,-3.789 1.0011,-0.6187 -4.4394,-20.4965 -24.3086,-88.8008 z m 293.9043,0 -18.0235,0.7207 c -16.9208,0.6773 -21.496,1.0325 -22.0097,1.709 -0.1175,0.1547 -3.2688,10.6332 -7.0039,23.2832 -3.7351,12.65 -10.0696,33.7946 -14.0762,46.9902 -4.0066,13.1956 -7.1284,24.149 -6.9375,24.3398 0.1909,0.1909 5.8935,0.9224 12.6738,1.625 6.7802,0.7027 14.8844,1.3369 18.0078,1.4102 l 5.6778,0.1348 1.1152,-5.75 c 2.0008,-10.3162 1.9343,-10.25 10.4473,-10.25 4.5073,0 7.7404,0.4501 8.166,1.1386 0.3875,0.6271 1.4633,4.1146 2.3906,7.75 l 1.6875,6.6114 5.418,-0.1035 c 2.9802,-0.057 10.0104,-0.6679 15.623,-1.3575 l 10.2051,-1.2539 0.666,-4.4492 c 0.3666,-2.4466 0.422,-5.9658 0.1211,-7.8203 -0.3009,-1.8545 -5.8575,-21.6755 -12.3476,-44.0488 z m -275.5488,1.2129 -0.01,10.25 c 0,5.6375 -0.297,13.3255 -0.6523,17.0859 l -0.6445,6.8379 10.9961,-0.7012 10.998,-0.7011 0.6445,16.3632 c 0.3546,8.9999 0.9459,23.9641 1.3125,33.252 l 0.666,16.8867 14.5528,-0.707 c 8.0042,-0.3892 14.8594,-0.8964 15.2324,-1.127 0.3729,-0.2304 1.0048,-11.3363 1.4063,-24.6797 0.4014,-13.3433 1.0151,-28.0848 1.3632,-32.7597 l 0.6329,-8.5 9.791,-0.5059 c 7.1799,-0.3709 10.0415,-0.9041 10.7343,-2 0.5196,-0.8218 0.9515,-7.6816 0.959,-15.2441 l 0.016,-13.75 h -39 z m -130.99224,27.0156 c 2.2072,-0.079 4.86464,0.8461 6.91602,2.5723 4.70033,3.955 3.90116,9.9405 -1.70313,12.7578 -3.13776,1.5774 -8.74965,2.7914 -9.48828,2.0527 -0.95482,-0.9548 0.52104,-15.9018 1.64258,-16.6348 0.71818,-0.4693 1.62954,-0.7122 2.63281,-0.748 z m 92.41994,11.2226 c 0.3305,-0.3304 5.5992,21.3917 5.582,23.0118 -0.02,0.8172 -9.3688,1.0549 -10.166,0.2578 -0.475,-0.4751 3.8759,-22.5615 4.584,-23.2696 z m 294.3379,0.1915 c 0.3704,0.3704 5.2344,22.0025 5.2344,23.2792 0,0.6695 -9.9144,0.2261 -10.2618,-0.4589 -0.5143,-1.0142 4.4228,-23.4249 5.0274,-22.8203 z m -391.26565,20.0703 4.89844,0.07 c 4.04764,0.06 5.30713,0.5479 7.25,2.8066 4.12482,4.7954 2.68315,10.7501 -3.19727,13.207 -7.90446,3.3028 -9.61724,1.7881 -9.24609,-8.1718 z"
         transform="matrix(0.23562396,0,0,0.23562396,-168.39147,-106.02915)" />
      <path
         style="fill:#ffd239;fill-opacity:1;stroke:none;stroke-width:0.235624px;stroke-linecap:butt;stroke-linejoin:miter;stroke-opacity:1"
         d="m 106.13245,95.106131 1.8222,0.0637 2.69284,0.28401 3.23984,0.62062 1.44109,0.51543 2.25105,0.9993 1.59888,1.00456 1.13078,1.05188 0.88884,1.209679 0.61011,1.28858 0.18934,0.80995 0.0421,0.70477 -0.0158,0.25245 -0.0947,0.84151 -0.45757,1.20968 -0.61536,0.90463 -0.83625,0.97826 -0.76262,0.64691 -1.29383,0.90989 -1.27805,0.69951 -1.09923,0.48387 -1.51472,0.57854 -1.61992,0.39972 -1.56732,0.31557 -1.70932,0.1946 -1.66725,0.12097 -1.17287,0.0158 -0.59431,-0.0263 -1.4148,-0.11046 -0.9467,-0.11044 -0.48387,-0.0631 -1.27805,-0.2209 -1.50421,-0.34186 -0.310306,-0.0894 -1.63043,-0.54172 -1.015078,-0.48913 -0.18934,-0.51017 0.215638,-4.59677 3.058496,-4.66797 3.33223,-4.790079 1.78512,-0.53554 z"
         id="path993" />
      <path
         style="fill:#ffffff;stroke:none;stroke-width:0.235624px;stroke-linecap:butt;stroke-linejoin:miter;stroke-opacity:1"
         d="m 50.500274,124.61226 4.964935,5.84851 3.092564,3.11361 2.429113,2.12141 4.471301,3.45362 0.441796,0.14727 c 0,0 8.709672,4.54417 9.803641,5.04908 1.093967,0.5049 5.675026,1.53472 5.675026,1.53472 l 10.175532,-3.04167 1.249797,-11.90093 2.498903,-10.59158 -7.691834,-6.00052 14.951542,-21.847289 6.54546,-5.11746 12.67418,-2.02312 14.22147,-3.45145 -11.6628,-3.2725 -22.84954,1.5471 -49.090833,0.29753 -3.372902,0.16455 -0.631135,0.21038 -0.252455,0.50491 -4.133577,20.303589 -3.55595,4.49151 8.911312,10.86053 z"
         id="path995" />
      <path
         style="fill:#ffffff;stroke:none;stroke-width:0.235624px;stroke-linecap:butt;stroke-linejoin:miter;stroke-opacity:1"
         d="m 91.52443,10.695225 c 0,0 0.371902,-0.357024 0.476033,-0.312397 0.104132,0.04463 0.163637,0.163636 0.163637,0.163636 l 1.874376,5.682635 0.89256,3.079334 0.133884,0.728924 0.138163,0.526933 c 0,0 0.0263,0.199858 0.11834,0.260343 0.09204,0.06048 0.333975,0.05522 0.333975,0.05522 l 0.244564,-0.163042 2.837472,-1.63524 0.73636,-0.232438 0.28078,-0.07438 0.880216,-0.364218 1.19259,-0.234046 0.74421,-0.170933 1.27016,-0.06838 0.17356,0.0526 0.27875,-0.04471 4.00771,-0.04733 1.42006,0.136747 1.25298,0.333038 1.62148,0.479751 2.88991,1.606563 2.92426,-8.52033 0.6101,-1.430574 c 0,0 0.29453,-0.6732113 0.67322,-0.5890613 0.37867,0.08415 1.18863,2.8558903 1.27804,3.5080653 0.0894,0.652171 0.95722,12.522782 0.95722,12.522782 l 0.23253,3.393861 0.19711,2.941732 c 0,0 0.0818,0.721485 0.0632,1.156609 -0.0186,0.435123 0.18966,4.853299 0.18966,4.853299 0,0 0.26945,3.21199 0.26945,3.69586 0,0.483872 0.26981,2.864459 0.26237,3.266111 -0.007,0.401651 0.23058,3.838002 0.33471,4.671062 0.10414,0.83306 0.30868,2.43595 0.30868,2.43595 l 0.22686,1.16404 0.23802,1.08223 0.23429,0.88512 0.21198,1.11942 0.44257,1.05249 0.92231,1.919 0.8405,1.25702 0.75867,0.9 0.82562,0.78099 1.03016,0.85909 0.89628,0.60619 1.02272,0.59505 0.93348,0.44628 1.49132,0.54669 1.13802,0.28636 c 0,0 8.18924,0.71033 10.24213,0.9781 2.05289,0.26777 10.92119,2.30867 11.39191,2.26397 0.47072,-0.0447 6.74938,-2.47967 7.56012,-2.43504 0.81074,0.0446 1.69587,0.54297 1.69587,0.54297 l 3.62974,2.4471 1.16777,0.91488 1.14545,1.04876 0.27521,0.44628 0.0409,0.21942 -0.8219,0.2343 -1.84835,0.36818 -5.92436,-0.79959 c 0,0 -14.757,3.86776 -14.39998,4.04628 0.35702,0.17851 -14.10246,4.10577 -14.10246,4.10577 l -6.06941,-1.66611 -5.65288,-4.70081 -1.96364,-10.05619 -2.43966,-19.874341 -3.09421,-8.271061 -16.716266,-4.47911 -8.394435,-8.076242 z"
         id="path997" />
      <path
         style="fill:#000000;stroke-width:0.235624"
         d="m 46.814406,163.3658 c -1.383189,-0.17394 -4.022548,-0.79694 -4.861711,-1.14757 l -0.793264,-0.33145 v -10.93421 -10.93421 l 1.708275,-0.49752 c 2.785809,-0.81135 4.749832,-1.0489 7.680907,-0.92903 5.752259,0.23523 8.830916,2.47644 9.167864,6.67404 0.193694,2.41305 -0.618717,4.05448 -2.549538,5.15121 l -0.994725,0.56501 1.152788,0.58808 c 0.634033,0.32343 1.438117,0.88954 1.786864,1.258 0.788927,0.83355 1.592316,2.5722 1.599174,3.46085 0.008,1.05336 -0.947756,3.98481 -1.49856,4.59566 -0.65563,0.72711 -2.306089,1.55396 -4.046255,2.02709 -1.385985,0.37683 -6.678027,0.66453 -8.351819,0.45405 z m 4.112022,-6.54903 c 1.385567,-0.57893 1.725195,-1.98192 0.753287,-3.11182 -0.457786,-0.53222 -0.754543,-0.64706 -1.708266,-0.66111 l -1.154247,-0.017 -0.06955,1.86453 c -0.08745,2.3468 0.316252,2.7036 2.178733,1.9254 z m 0.181128,-7.596 c 1.320504,-0.66383 1.508757,-2.07417 0.401245,-3.00608 -0.70306,-0.59158 -1.708114,-0.78355 -2.24962,-0.42968 -0.264261,0.17269 -0.612082,3.69444 -0.387103,3.91942 0.174039,0.17405 1.496146,-0.11199 2.235478,-0.48366 z m 13.614268,13.0855 c -2.138284,-0.22018 -4.007926,-0.41004 -4.154741,-0.42193 -0.279659,-0.0226 0.05334,-1.21497 4.151687,-14.86591 2.162035,-7.2014 2.332441,-7.65968 2.859324,-7.68965 0.308156,-0.0175 2.423482,-0.10849 4.700727,-0.20214 l 4.140457,-0.17027 0.504317,1.7337 c 4.681652,16.09413 5.963755,20.77753 5.727876,20.92331 -0.380772,0.23533 -7.4726,1.04102 -7.858795,0.89283 -0.178537,-0.0685 -0.462069,-0.74496 -0.630071,-1.50324 -0.497683,-2.24627 -0.481679,-2.23282 -2.562246,-2.15411 l -1.812621,0.0686 -0.471251,1.8138 c -0.259185,0.99759 -0.524256,1.85016 -0.589052,1.89459 -0.06483,0.0444 -1.867326,-0.0994 -4.005611,-0.31956 z m 8.248944,-8.63147 c 0.0045,-0.38023 -1.237354,-5.49966 -1.315232,-5.42178 -0.166843,0.16684 -1.19206,5.37101 -1.080136,5.48295 0.187942,0.18793 2.39307,0.13164 2.395368,-0.0612 z m 13.109372,4.98042 c -0.08638,-2.18845 -0.225505,-5.71403 -0.309055,-7.83462 l -0.151918,-3.85561 -2.591262,0.16508 -2.59126,0.16507 0.152132,-1.611 c 0.08371,-0.88605 0.15288,-2.69783 0.153797,-4.02616 l 0.0018,-2.41515 h 9.189334 9.189326 l -0.004,3.23984 c -0.002,1.78191 -0.10378,3.39827 -0.2262,3.59191 -0.16325,0.25822 -0.83758,0.38386 -2.529352,0.47125 l -2.306767,0.11916 -0.149122,2.00281 c -0.08202,1.10153 -0.226511,4.57518 -0.321096,7.71919 -0.09459,3.14402 -0.24385,5.76082 -0.331702,5.81511 -0.0879,0.0543 -1.702798,0.17374 -3.588771,0.26543 l -3.429044,0.16671 z m 13.278404,3.44946 c 0,-0.25571 0.20721,-2.66791 0.46047,-5.36045 0.572396,-6.08565 0.952356,-11.99927 0.952876,-14.83052 l 4.7e-4,-2.15942 1.70828,-0.13613 c 0.93954,-0.0749 2.74208,-0.16751 4.00561,-0.20584 l 2.29733,-0.0696 v 0.92484 0.92484 l 1.13234,-1.05917 c 1.37425,-1.28545 2.51007,-1.70515 4.00705,-1.48066 1.50385,0.22551 2.34656,0.70748 2.91168,1.66528 0.26287,0.44554 0.55367,0.81006 0.64621,0.81006 0.0925,0 0.4797,-0.3278 0.86033,-0.72845 1.19069,-1.25332 2.36948,-1.73465 4.23865,-1.73074 1.3878,0.003 1.84565,0.11134 2.77851,0.65804 2.04254,1.197 3.21504,3.45365 3.70918,7.13892 0.30748,2.2931 0.15576,12.85692 -0.20253,14.10122 l -0.20354,0.70687 -4.0638,0.20052 c -2.23508,0.11029 -4.12416,0.14016 -4.19793,0.0664 -0.0737,-0.0738 -0.0168,-1.06528 0.12643,-2.20333 0.57886,-4.59678 0.78953,-9.32864 0.5221,-11.72693 -0.28893,-2.59118 -0.67281,-3.35123 -1.47557,-2.92161 -0.93111,0.49833 -1.06265,1.44532 -1.20716,8.69154 -0.0762,3.823 -0.22964,7.269 -0.34089,7.65778 l -0.20227,0.70687 -3.75362,0.15516 c -2.06448,0.0853 -3.79483,0.1148 -3.84521,0.0655 -0.0504,-0.0493 0.0825,-1.81564 0.29529,-3.92514 0.64956,-6.43935 0.45707,-12.2294 -0.43627,-13.12274 -0.29866,-0.29866 -0.4011,-0.28816 -0.81153,0.0833 -0.96537,0.87365 -1.09371,1.97203 -1.33017,11.38351 l -0.15539,6.18513 h -4.21343 c -4.037326,0 -4.213496,-0.0194 -4.213496,-0.46493 z m 33.263606,0.101 c -1.5976,-0.16556 -2.94151,-0.33781 -2.98648,-0.38278 -0.045,-0.045 0.69064,-2.62564 1.63468,-5.73484 0.94404,-3.1092 2.43651,-8.09179 3.31658,-11.07243 0.88009,-2.98064 1.6228,-5.44919 1.65049,-5.48565 0.12104,-0.1594 1.19883,-0.24309 5.18577,-0.40269 l 4.24699,-0.17 2.78043,9.58489 c 1.52924,5.27168 2.83845,9.9424 2.90935,10.37936 0.0709,0.43696 0.0582,1.26615 -0.0282,1.84263 l -0.15718,1.04817 -2.40449,0.29541 c -1.32246,0.16247 -2.97902,0.30635 -3.68122,0.31973 l -1.27673,0.0243 -0.39724,-1.55747 c -0.21849,-0.8566 -0.47196,-1.67834 -0.56327,-1.82609 -0.10027,-0.16224 -0.8623,-0.26861 -1.92434,-0.26861 -2.00585,0 -1.98992,-0.0156 -2.46136,2.41514 l -0.26277,1.35484 -1.33813,-0.0314 c -0.73597,-0.0173 -2.64525,-0.1669 -4.24283,-0.33247 z m 9.61997,-8.42249 c 0,-0.30083 -1.14628,-5.39772 -1.23357,-5.48501 -0.14244,-0.14245 -1.30565,5.13766 -1.18447,5.37662 0.0818,0.16141 2.41804,0.26613 2.41804,0.10839 z m 10.13418,7.19878 c 8.9e-4,-0.8763 0.15339,-4.03199 0.33801,-7.01264 0.18462,-2.98064 0.41113,-7.56978 0.50334,-10.19811 0.0922,-2.62831 0.23171,-4.81564 0.30996,-4.86072 0.0783,-0.0451 1.86529,-0.15809 3.97117,-0.25114 l 3.82889,-0.16918 v 1.22542 1.22542 l 0.86819,-0.76227 c 1.32545,-1.16376 2.56443,-1.63244 4.31555,-1.63244 3.387,0 5.45495,2.14141 6.51253,6.74387 0.4081,1.77603 0.74648,13.77539 0.44513,15.78495 l -0.1644,1.09634 -4.7237,-0.14623 c -2.59803,-0.0804 -4.74857,-0.1764 -4.77896,-0.21328 -0.0304,-0.0369 0.14556,-1.28639 0.39101,-2.77671 0.28153,-1.7095 0.48948,-4.44912 0.56335,-7.42215 0.10209,-4.10908 0.0636,-4.86334 -0.30097,-5.8906 -0.3179,-0.89588 -0.54817,-1.19657 -0.96117,-1.25512 -0.72424,-0.10266 -1.20327,0.33114 -1.77623,1.60855 -0.42598,0.94969 -0.49873,1.83463 -0.69733,8.48247 -0.12195,4.08218 -0.28832,7.48816 -0.36971,7.56885 -0.0814,0.0807 -1.977,0.21449 -4.21248,0.29735 l -4.06451,0.15066 0.003,-1.59329 z m -73.556222,-17.3621 -0.593701,-1.98007 0.569149,-0.72723 c 0.313027,-0.39998 0.65587,-0.72723 0.761881,-0.72723 0.15776,0 0.06634,5.17192 -0.09471,5.35807 -0.02689,0.0311 -0.316082,-0.83449 -0.642619,-1.92354 z m -13.874103,-4.82373 c -0.459879,-0.33749 -1.538812,-1.17313 -2.397621,-1.85698 l -1.561467,-1.24337 1.078329,-2.05536 c 0.593077,-1.13045 1.334261,-2.40188 1.647066,-2.82539 l 0.568748,-0.77003 1.928668,0.13424 c 2.870678,0.19981 3.460229,0.3218 3.460229,0.71605 0,0.72677 -2.478259,6.83415 -2.956482,7.28591 -0.275144,0.25991 -0.597237,0.64267 -0.715786,0.85056 -0.19016,0.3335 -0.313964,0.30577 -1.051684,-0.23563 z m 12.357189,-0.45197 c -0.154732,-0.54041 -0.180451,-0.544 -2.893281,-0.4056 -1.505435,0.0769 -3.252678,0.19487 -3.882768,0.26233 l -1.145609,0.12268 0.543145,-0.89521 c 3.575137,-5.89247 3.951687,-6.34894 6.147742,-7.45246 0.949608,-0.47719 2.068919,-0.93282 2.487351,-1.01252 0.680369,-0.1296 0.786736,-0.0734 1.006265,0.53151 0.681724,1.87855 1.41387,2.37416 1.41387,0.95708 0,-0.42881 0.159042,-0.98548 0.35343,-1.23703 0.349335,-0.45208 0.357653,-0.45192 0.717104,0.0139 0.562871,0.72938 0.643537,1.38082 0.347528,2.80667 -0.296009,1.42587 -1.29572,2.92502 -3.627814,5.44018 -1.233702,1.33054 -1.320031,1.38165 -1.466963,0.86849 z m 4.383586,-0.13298 c 0,-0.23798 2.567474,-2.03146 2.908153,-2.03146 0.305824,0 0.390586,0.23008 0.390586,1.06031 v 1.0603 h -1.649375 c -0.907147,0 -1.649364,-0.0402 -1.649364,-0.0892 z m 5.296031,-0.55881 c 0.0553,-0.35639 0.15776,-1.47499 0.227713,-2.48579 0.148285,-2.1424 0.329716,-2.56876 1.597588,-3.75427 l 0.940722,-0.8796 -1.08573,-1.20759 c -1.342277,-1.49293 -1.391231,-2.12862 -0.265258,-3.44407 0.804075,-0.93938 0.809953,-0.96134 0.29453,-1.0995 -1.020691,-0.27359 -1.501329,-0.13943 -2.215298,0.61837 -1.358182,1.44154 -1.598968,3.13984 -0.644569,4.54622 0.336252,0.49549 0.707433,1.15357 0.824842,1.46239 0.235826,0.62027 0.009,4.53556 -0.262738,4.53556 -0.09391,0 -0.242175,-0.45063 -0.329476,-1.0014 -0.08727,-0.55077 -0.690013,-2.07202 -1.339356,-3.38053 -1.482458,-2.98737 -1.637271,-4.14525 -0.924789,-6.91666 0.281573,-1.09529 0.614006,-2.18211 0.738718,-2.41515 0.30024,-0.561 1.301321,-0.54439 2.858425,0.0475 0.805438,0.30613 1.810314,0.47117 2.869282,0.47125 1.945231,1.4e-4 1.909796,-0.18731 -0.08879,-0.46981 -0.799784,-0.11304 -1.875717,-0.42527 -2.390969,-0.69383 -0.572524,-0.29842 -1.43046,-0.49968 -2.206268,-0.51756 -1.114254,-0.0257 -1.442598,0.0864 -2.685615,0.91641 -3.773757,2.52001 -14.591003,5.06394 -18.666236,4.3898 l -0.845762,-0.13992 3.562911,-3.36559 c 4.861764,-4.5925 13.178604,-13.12163 17.17073,-17.60904 3.921873,-4.40842 6.307008,-7.491889 7.841919,-10.137899 2.158019,-3.72017 7.192447,-7.98856 10.936513,-9.27243 2.20217,-0.75513 4.47395,-1.02236 4.47395,-0.52626 0,0.18647 -0.12723,0.46627 -0.28275,0.62179 -0.21991,0.21991 -0.0387,0.28275 0.8155,0.28275 0.82638,0 1.21719,-0.12767 1.57868,-0.51568 0.26424,-0.28362 0.48044,-0.59799 0.48044,-0.69858 0,-0.34579 0.93706,-0.68352 2.17581,-0.78417 0.68241,-0.0555 2.03596,-0.16386 3.00791,-0.24092 2.57864,-0.20445 5.38243,-0.71538 9.0773,-1.65414 4.08217,-1.03716 4.5913,-1.33516 1.40798,-0.82409 -2.21628,0.35581 -13.19961,1.60757 -15.55119,1.77236 -3.49963,0.24523 -8.91167,0.80592 -13.784015,1.42801 -2.615573,0.33395 -7.030461,0.68442 -10.249638,0.81364 -3.110236,0.12484 -6.047884,0.28171 -6.528103,0.34858 -2.218335,0.3089 -12.086605,-1.07598 -19.48187,-2.73403 -4.174815,-0.936 -11.426675,-2.31026 -11.552411,-2.18922 -0.191156,0.184 0.150075,0.31137 4.578045,1.70885 8.156978,2.57438 16.460956,4.76732 21.996126,5.80881 1.602477,0.30152 3.020825,0.65545 3.151896,0.78651 1.089656,1.08966 -8.498475,8.7987 -16.432947,13.212399 -4.018417,2.23532 -8.296526,3.77521 -12.605885,4.53743 l -1.767183,0.31257 1.649373,0.0742 c 2.467386,0.11096 5.063625,-0.34714 8.548043,-1.50827 5.205257,-1.73459 10.701831,-4.56302 21.611818,-11.121059 7.042404,-4.23321 7.67349,-4.55232 9.293173,-4.69919 1.341272,-0.12162 3.07709,0.3613 3.07709,0.85608 0,0.1305 -0.733624,1.16972 -1.630279,2.30936 -0.896658,1.13965 -3.354078,4.29873 -5.460944,7.020179 -2.106866,2.72146 -4.544062,5.79635 -5.415988,6.8331 -1.486127,1.76704 -15.440211,15.74293 -18.849644,18.87911 l -1.550425,1.42615 -3.868929,-1.19891 c -2.127909,-0.65942 -4.004346,-1.28649 -4.169854,-1.39351 -0.165517,-0.10701 -1.364684,-1.79847 -2.664819,-3.7588 -2.372134,-3.57666 -5.470347,-9.49821 -6.803622,-13.00364 l -0.713952,-1.87708 0.819972,-3.07102 c 0.450982,-1.68906 1.09125,-4.078309 1.422819,-5.309439 1.102719,-4.09446 4.382864,-14.67792 4.871008,-15.7164 0.665025,-1.41478 1.286912,-1.8252 3.289654,-2.17106 1.681372,-0.29036 7.586056,-1.5311 10.918574,-2.2943 2.725243,-0.62413 8.314139,-2.41012 11.074319,-3.5389 4.413579,-1.80497 11.728793,-5.73581 12.577672,-6.75865 0.346048,-0.41697 0.935493,-5.94405 1.66209,-15.58518 0.263709,-3.49901 0.854169,-11.345292 1.312132,-17.436173 1.03617,-13.780764 1.194323,-15.342767 1.90856,-18.849911 0.769209,-3.777131 1.131617,-4.933596 1.573373,-5.020727 0.262997,-0.05192 0.333582,0.05975 0.24702,0.39079 -0.304923,1.166029 0.642967,8.472177 1.466847,11.306236 0.427526,1.470641 0.05673,1.465271 4.110633,0.05949 5.698911,-1.976213 10.051761,-1.789742 14.682871,0.629011 4.48571,2.342808 6.72548,6.665818 7.58603,14.641951 0.20417,1.892351 0.53179,4.925065 0.72803,6.739368 0.58933,5.448425 1.95324,14.789055 2.35913,16.156285 1.10141,3.7101 3.66927,7.07572 6.2795,8.23035 1.19772,0.52981 4.6826,1.17856 6.33079,1.17856 0.63099,0 1.14726,0.0944 1.14726,0.20968 0,0.22874 -1.5176,0.98293 -2.82749,1.40516 -0.67701,0.21822 -5.08385,0.97069 -5.7139,0.97564 -0.49199,0.004 -0.0715,0.46324 0.70688,0.77226 1.65054,0.65528 2.68801,0.69223 5.17976,0.18444 3.40497,-0.69389 5.1016,-1.26959 6.74796,-2.28972 1.55694,-0.96472 2.60685,-1.09995 4.2724,-0.55027 1.11754,0.36883 1.05301,0.88636 -0.24589,1.9721 -2.71542,2.2698 -6.00235,3.83293 -10.24034,4.86987 -3.19825,0.78254 -3.19825,1.01469 0,0.86411 3.49943,-0.16476 6.60977,-0.81393 10.97542,-2.29076 1.93351,-0.65406 5.63607,-1.83052 8.22794,-2.61437 2.65546,-0.80306 5.67391,-1.89383 6.91504,-2.49886 l 2.20256,-1.07373 1.43116,0.39791 c 2.40623,0.66898 5.12024,2.13229 5.12024,2.76066 0,0.12784 -0.083,0.18115 -0.1844,0.11846 -0.25358,-0.15672 -5.83999,1.57391 -12.51156,3.87599 -5.85944,2.02184 -10.63861,3.72714 -10.90244,3.89019 -0.0864,0.0533 1.31052,2.24385 3.1042,4.86769 1.79367,2.62386 3.63033,5.51287 4.08144,6.42002 1.94515,3.9115 1.65946,7.3761 -0.80549,9.768249 -2.02316,1.96342 -7.95217,5.49191 -16.82943,10.01562 -5.79661,2.95384 -5.80182,2.95123 -1.39106,-0.69833 3.2204,-2.66463 7.56622,-6.85305 9.03907,-8.71166 2.43436,-3.071979 2.63357,-4.261039 1.19062,-7.106759 -1.41737,-2.7953 -7.19262,-10.4793 -8.15321,-10.84792 -0.17632,-0.0677 -2.04614,0.36076 -4.15517,0.95204 -6.06593,1.70064 -12.83162,2.74096 -17.82567,2.74096 -1.42004,0 -2.75507,0.0664 -2.96675,0.14769 -0.49426,0.18966 -5.22183,6.42799 -4.99679,6.59359 0.0229,0.0168 1.10506,0.0997 2.40487,0.1841 6.65642,0.43237 12.16563,3.30727 13.20782,6.892299 0.70715,2.43253 -0.002,4.51378 -2.19353,6.44339 -1.29502,1.13993 -4.28552,2.65116 -6.25707,3.16199 -4.56179,1.18195 -11.09903,0.9445 -15.013926,-0.54536 -0.712761,-0.27125 -1.367554,-0.49324 -1.455086,-0.4933 -0.324346,-2.3e-4 -3.256081,3.6298 -3.076547,3.80933 0.297123,0.29712 3.802797,1.10923 7.470119,1.73049 4.90855,0.83154 11.35553,1.36634 16.65681,1.38173 5.18132,0.0151 5.15091,-0.007 2.006,1.44618 -3.73893,1.72749 -11.65928,3.60682 -18.9762,4.50264 -2.845976,0.34845 -3.319396,0.46412 -3.217206,0.78609 0.0659,0.20765 0.14657,1.57467 0.17925,3.03785 l 0.0594,2.66032 -0.872079,0.80052 c -0.479648,0.44028 -1.168843,0.87317 -1.531554,0.96198 -0.903753,0.22128 -1.00516,0.44571 -1.00931,2.23386 -0.0018,0.85575 -0.07169,2.20764 -0.154982,3.00421 l -0.151375,1.44831 h -3.73053 -3.730529 z M 109.41159,111.8942 c 6.66434,-0.74312 11.66967,-3.74913 12.44696,-7.4752 0.40672,-1.94968 -0.98938,-4.515129 -3.28705,-6.040239 -2.53013,-1.6794 -5.36043,-2.55712 -9.64087,-2.98979 l -2.79818,-0.28284 -0.41689,0.55269 c -0.386,0.51173 -0.3893,0.61055 -0.0446,1.33344 0.31093,0.65203 0.50111,0.78076 1.15337,0.78076 0.47671,0 0.78104,-0.11728 0.78104,-0.301 0,-0.16556 0.18149,-0.56013 0.40332,-0.87683 l 0.40332,-0.57582 0.16224,0.5823 c 0.0893,0.32026 0.17882,1.05943 0.19905,1.6426 0.0615,1.774509 0.4831,2.652719 1.38461,2.884659 1.11176,0.28606 2.32786,-0.17054 2.88417,-1.08287 0.61744,-1.012589 0.56864,-1.864889 -0.15612,-2.726209 -0.3355,-0.39872 -0.54998,-0.72495 -0.47663,-0.72495 0.0734,0 0.84893,0.26933 1.72348,0.59851 4.83811,1.82105 7.25732,4.383379 6.78394,7.185259 -0.1938,1.14709 -1.25292,2.81948 -2.28327,3.60537 -0.66072,0.50395 -3.25324,1.8058 -3.59609,1.8058 -0.052,0 0.16945,-0.47226 0.49206,-1.04947 0.63643,-1.13872 0.53315,-1.75836 -0.37402,-2.24386 -0.76555,-0.40971 -1.34635,-0.27262 -2.4661,0.5821 -0.5931,0.45272 -1.07835,0.7178 -1.07835,0.58906 0,-0.43979 -0.94157,-1.17656 -1.5036,-1.17656 -0.68687,0 -1.84563,1.13127 -2.72985,2.66512 l -0.65348,1.13356 -0.71878,-1.27363 c -0.8154,-1.44479 -1.9703,-2.52505 -2.69957,-2.52505 -0.57209,0 -1.35532,0.63469 -1.35532,1.0983 0,0.20445 -0.3524,0.0631 -0.98467,-0.3949 -0.54158,-0.39231 -1.052856,-0.63155 -1.136186,-0.53163 -1.17222,1.40544 -1.66415,2.23717 -1.54507,2.61233 0.10609,0.33426 0.0201,0.43052 -0.37149,0.41587 -0.280251,-0.0105 -0.552126,0.103 -0.604161,0.25218 -0.117463,0.33668 3.005207,1.38696 5.112827,1.71965 3.23142,0.51007 4.20184,0.54219 6.98994,0.23129 z m -5.39388,-11.02013 c 0.26697,-0.16944 0.77051,-2.411449 0.74939,-3.336669 -0.009,-0.40176 -0.51863,0.48431 -1.32089,2.29733 -0.49606,1.121069 -0.509,1.236679 -0.138,1.233419 0.22515,-0.002 0.54443,-0.0893 0.7095,-0.19408 z m 8.02944,-27.265959 c 0.97531,-0.39024 4.31868,-3.95279 6.45412,-6.87723 0.96031,-1.31513 1.102,-1.65069 1.00732,-2.38576 -0.0606,-0.47046 -0.3468,-3.74472 -0.636,-7.27614 -0.28921,-3.53141 -0.6201,-6.42075 -0.73532,-6.42075 -0.11522,0 -0.49094,0.20016 -0.83493,0.44479 -1.16331,0.82731 -5.3238,2.79094 -7.81196,3.68702 -2.4102,0.868 -4.52644,2.11223 -4.79852,2.82127 -0.21397,0.55756 -0.66162,0.41152 -1.79896,-0.58688 -0.91146,-0.80011 -11.984525,-6.94828 -12.173588,-6.75922 -0.302402,0.3024 -0.49639,4.31945 -0.446448,9.24506 l 0.05993,5.90674 1.208472,1.79089 c 2.303917,3.41424 4.526446,5.89092 5.773026,6.43314 1.157642,0.50355 13.464988,0.48439 14.732898,-0.023 z m -4.67739,-12.38911 c -1.84731,-0.35408 -2.90152,-0.40367 -6.03344,-0.28385 -2.721466,0.10412 -3.84184,0.0694 -3.960603,-0.12276 -0.111043,-0.17969 0.09125,-0.26732 0.614087,-0.266 0.42882,8.9e-4 2.088366,-0.12698 3.687876,-0.28455 2.49473,-0.24578 3.22018,-0.23344 5.10237,0.0867 2.00388,0.3409 3.5034,0.93348 3.02216,1.19428 -0.10671,0.0578 -1.20131,-0.0879 -2.43245,-0.32388 z m 6.04717,-11.48309 c 0.51378,-0.37218 1.25956,-1.087888 1.65728,-1.590459 0.88355,-1.116497 2.49794,-4.015327 2.38886,-4.289517 -0.0682,-0.171466 -8.42084,3.570658 -9.74194,4.364563 -1.15167,0.692083 1.11222,2.182273 3.32435,2.188233 1.21235,0.004 1.5835,-0.10204 2.37145,-0.67282 z m -13.25853,-0.27526 c 0.85601,-0.2644 1.55638,-0.56883 1.55638,-0.67651 0,-0.107683 -1.40491,-0.840986 -3.122016,-1.629557 -4.917129,-2.258161 -6.413524,-2.855504 -6.50566,-2.596987 -0.168599,0.473076 1.955214,3.2163 3.575271,4.617984 1.078194,0.93286 2.173808,1.00232 4.496025,0.28507 z m 37.13815,88.129279 c 0.27822,-0.39074 1.3694,-1.36778 2.42483,-2.17121 5.61181,-4.27191 9.24762,-9.10706 10.78704,-14.34539 0.28992,-0.98651 0.46218,-1.96287 0.38281,-2.1697 -0.22458,-0.58525 -2.61209,-1.1827 -3.99379,-0.99941 -0.64399,0.0854 -3.57185,0.62922 -6.50637,1.20843 -5.55666,1.09678 -6.85978,1.22501 -4.86423,0.47864 2.58259,-0.96593 8.38362,-3.95382 10.7209,-5.52192 2.53788,-1.70269 4.12071,-3.06364 5.25124,-4.51515 0.76386,-0.98075 0.80976,-0.93626 1.69762,1.64539 2.70197,7.85656 3.75496,10.40113 5.15768,12.46371 l 0.86206,1.26761 -0.64591,0.85301 c -2.06467,2.72669 -7.21642,7.95627 -10.32471,10.48071 l -1.88981,1.53483 -4.20365,0.25043 c -2.31201,0.13774 -4.46417,0.25043 -4.78261,0.25043 h -0.57897 z m -80.298219,-5.48106 c -0.806213,-0.81344 -1.465841,-1.55708 -1.465841,-1.65253 0,-0.23271 1.650407,0.46756 2.134534,0.90569 0.341463,0.30902 0.454741,0.29289 1.010024,-0.1439 0.343982,-0.27057 0.625422,-0.38632 0.625422,-0.25721 0,0.50863 -0.560626,2.62694 -0.695241,2.62694 -0.07872,0 -0.802686,-0.66554 -1.608898,-1.47899 z M 169.93033,72.557421 c 0.0814,-0.13171 0.24671,-0.17847 0.36734,-0.10391 0.32683,0.20198 0.26589,0.34338 -0.148,0.34338 -0.20204,0 -0.30073,-0.10777 -0.21934,-0.23947 z m 0.99903,-0.15222 c 0.162,-0.0654 0.42707,-0.0654 0.58906,0 0.16199,0.0654 0.0295,0.11886 -0.29453,0.11886 -0.32398,0 -0.45652,-0.0535 -0.29453,-0.11886 z m 1.0014,-0.39134 c 0,-0.60663 -5.58945,-4.68063 -7.00642,-5.1068 -0.49315,-0.14831 -0.53559,-0.20081 -0.17476,-0.21615 0.7045,-0.0299 3.16604,1.50553 5.55162,3.46301 1.9565,1.6054 2.44288,2.17171 1.86519,2.17171 -0.12959,0 -0.23563,-0.14029 -0.23563,-0.31177 z m -16.37587,-2.99196 c -0.63427,-0.16587 -0.60405,-0.18116 0.29418,-0.14884 0.55058,0.0198 1.00121,0.11555 1.0014,0.21275 4.7e-4,0.20677 -0.32125,0.1909 -1.29558,-0.064 z m 2.23842,-0.34844 c 1.07579,-0.41428 1.49906,-0.40817 0.58906,0.009 -0.38877,0.17802 -0.86591,0.32038 -1.0603,0.31638 -0.19439,-0.004 0.0176,-0.15022 0.47124,-0.32489 z m -4.24123,-0.11781 c -0.47354,-0.15166 -0.49664,-0.19 -0.11781,-0.19558 0.25919,-0.004 0.68331,0.0842 0.9425,0.19558 0.60042,0.25801 -0.0191,0.25801 -0.82469,0 z m -1.22229,-0.39658 c 0.17008,-0.068 0.37331,-0.0597 0.45161,0.0186 0.0783,0.0783 -0.0609,0.13398 -0.30926,0.12375 -0.27449,-0.0113 -0.33032,-0.0671 -0.14235,-0.14235 z m -0.9425,-0.23562 c 0.17009,-0.068 0.37332,-0.0597 0.45161,0.0186 0.0783,0.0783 -0.0609,0.13398 -0.30925,0.12375 -0.2745,-0.0113 -0.33032,-0.0671 -0.14236,-0.14236 z m 8.52664,0.0807 c 0,-0.13959 2.82758,-1.10415 3.16777,-1.0806 0.13683,0.009 -0.28137,0.20601 -0.92934,0.43677 -1.78894,0.63709 -2.23843,0.76637 -2.23843,0.64383 z m -9.46914,-0.31628 c 0.1701,-0.068 0.37332,-0.0597 0.45162,0.0186 0.0783,0.0783 -0.0609,0.13399 -0.30926,0.12376 -0.27449,-0.0113 -0.33032,-0.0671 -0.14236,-0.14235 z m -1.77742,-0.23795 c 0.22926,-0.0598 0.54734,-0.0558 0.70687,0.009 0.15953,0.0646 -0.0281,0.11343 -0.41682,0.10863 -0.38878,-0.004 -0.51931,-0.0576 -0.29005,-0.11735 z m -1.05007,-0.2333 c 0.1701,-0.068 0.37332,-0.0597 0.45162,0.0186 0.0783,0.0783 -0.0609,0.13399 -0.30926,0.12375 -0.27449,-0.0113 -0.33031,-0.0671 -0.14236,-0.14235 z m -1.42847,-0.23071 c 0.162,-0.0654 0.42707,-0.0654 0.58906,0 0.16199,0.0654 0.0295,0.11884 -0.29453,0.11884 -0.32398,0 -0.45653,-0.0534 -0.29453,-0.11884 z m -1.52707,-0.24286 c 0.22925,-0.0598 0.54734,-0.0558 0.70687,0.009 0.15952,0.0646 -0.0281,0.11343 -0.41683,0.10863 -0.38878,-0.004 -0.5193,-0.0576 -0.29004,-0.11736 z m 18.97798,0.003 c 0.17008,-0.068 0.37331,-0.0597 0.45161,0.0186 0.0783,0.0783 -0.0609,0.13398 -0.30926,0.12375 -0.27449,-0.0113 -0.33032,-0.0671 -0.14235,-0.14235 z m -21.2209,-0.24099 c 0.29158,-0.0562 0.76872,-0.0562 1.06031,0 0.29159,0.0562 0.053,0.10212 -0.53016,0.10212 -0.58316,0 -0.82173,-0.0459 -0.53015,-0.10212 z m -3.30399,-0.23938 c 0.41829,-0.0521 1.16051,-0.0529 1.64937,-0.002 0.48886,0.051 0.14663,0.0936 -0.76052,0.0946 -0.90715,8.9e-4 -1.30713,-0.0407 -0.88885,-0.0927 z m -2.82223,-0.23186 c 0.29159,-0.0562 0.76873,-0.0562 1.06031,0 0.29158,0.0562 0.053,0.10211 -0.53015,0.10211 -0.58318,0 -0.82175,-0.046 -0.53016,-0.10211 z m -1.41374,-0.22539 c 0.16199,-0.0654 0.42706,-0.0654 0.58905,0 0.16199,0.0654 0.0295,0.11885 -0.29453,0.11885 -0.32398,0 -0.45652,-0.0534 -0.29452,-0.11885 z m -2.89304,-0.87164 c -2.18388,-1.05299 -3.95189,-2.42018 -5.11679,-3.95676 -1.02386,-1.35055 -2.30391,-3.92786 -2.29062,-4.61205 0.004,-0.22963 0.30901,0.34506 0.67678,1.27709 1.44823,3.6703 4.57178,6.56222 8.37418,7.75317 0.52523,0.1645 0.7399,0.30619 0.47707,0.31486 -0.26285,0.009 -1.21713,-0.34067 -2.12062,-0.77631 z m -7.63254,-9.47721 c 0.0113,-0.27448 0.0671,-0.33032 0.14235,-0.14235 0.068,0.17008 0.0597,0.37331 -0.0186,0.45161 -0.0783,0.0783 -0.13398,-0.0608 -0.12375,-0.30926 z m -0.23562,-0.94249 c 0.0113,-0.2745 0.0671,-0.33032 0.14235,-0.14236 0.068,0.17009 0.0597,0.37331 -0.0186,0.45162 -0.0783,0.0783 -0.13398,-0.0609 -0.12375,-0.30926 z m -0.21703,-1.04068 c 0,-0.32398 0.0534,-0.45652 0.11884,-0.29453 0.0654,0.16199 0.0654,0.42707 0,0.58906 -0.0654,0.16199 -0.11884,0.0295 -0.11884,-0.29453 z m -0.23562,-1.17811 c 0,-0.32399 0.0534,-0.45652 0.11884,-0.29453 0.0654,0.16199 0.0654,0.42706 0,0.58906 -0.0654,0.16199 -0.11884,0.0295 -0.11884,-0.29453 z m -0.10461,-0.86792 c -0.0631,-0.10582 -0.18525,-0.8816 -0.27162,-1.72395 -0.0864,-0.84236 -0.21684,-1.849648 -0.28995,-2.238425 -0.0744,-0.395732 -0.043,-0.621157 0.0713,-0.512154 0.18546,0.176827 0.79675,4.416799 0.66209,4.592339 -0.0314,0.041 -0.10879,-0.012 -0.17182,-0.11781 z m -0.5753,-6.200801 c 0,-0.583175 0.046,-0.821744 0.10212,-0.530161 0.0562,0.291592 0.0562,0.76873 0,1.060313 -0.0562,0.291583 -0.10212,0.05299 -0.10212,-0.530152 z m -0.22919,-3.063118 c 0,-0.712758 0.0442,-1.004341 0.0982,-0.647962 0.054,0.356379 0.054,0.939545 0,1.295934 -0.054,0.356379 -0.0982,0.06483 -0.0982,-0.647972 z m -0.22701,-4.005601 c 0,-0.971952 0.0416,-1.369564 0.0924,-0.883592 0.0508,0.485972 0.0508,1.281204 0,1.767175 -0.0509,0.485981 -0.0924,0.08834 -0.0924,-0.883583 z m -0.23407,-4.830293 c 8.9e-4,-1.036748 0.0423,-1.431563 0.0921,-0.877367 0.0498,0.554197 0.0491,1.402443 -0.002,1.884995 -0.0506,0.482552 -0.0914,0.02912 -0.0905,-1.007628 z m -0.23908,-4.00561 c 9e-4,-0.907147 0.0436,-1.249384 0.0946,-0.760519 0.051,0.488866 0.0501,1.231075 -0.002,1.649365 -0.0521,0.41829 -0.0938,0.01835 -0.0927,-0.888846 z m -0.23562,-3.53436 c 8.9e-4,-0.907147 0.0436,-1.249384 0.0946,-0.760518 0.051,0.488866 0.0501,1.231075 -0.002,1.649365 -0.0521,0.41829 -0.0938,0.01834 -0.0928,-0.888847 z m -5.02543,-3.8227 c -1.33217,-1.205757 -2.8108,-2.299554 -3.65217,-2.701627 -0.77756,-0.371572 -1.14867,-0.605955 -0.82469,-0.520845 0.32398,0.08514 0.98819,0.356121 1.47601,0.60225 l 0.88695,0.447518 0.2465,-0.654463 c 0.13558,-0.35996 1.05824,-2.335906 2.05035,-4.390995 1.53048,-3.170241 1.82779,-3.647058 1.96173,-3.146206 0.24456,0.914468 0.75247,11.167775 0.58605,11.83085 -0.0813,0.323972 -0.22534,0.582409 -0.32007,0.574296 -0.0947,-0.008 -1.17952,-0.926454 -2.41066,-2.040778 z m 4.77987,0.288341 c 0.002,-0.647962 0.0476,-0.88507 0.1017,-0.52691 0.0541,0.35816 0.0527,0.888321 -0.004,1.178123 -0.0559,0.289802 -0.10025,-0.0036 -0.0985,-0.651213 z M 95.13592,20.783244 c 0.01122,-0.249086 0.0659,-0.295074 0.137998,-0.116145 0.08906,0.220865 0.279053,0.183747 0.747178,-0.145952 0.751195,-0.529074 2.536318,-1.44835 2.797908,-1.440825 0.10235,0.0027 -0.49736,0.373611 -1.332699,0.823721 -0.835351,0.4501 -1.625276,0.924824 -1.755402,1.054951 -0.359416,0.359416 -0.615715,0.283702 -0.594983,-0.17575 z M 94.780707,19.6472 c -0.08665,-0.34531 -0.112137,-0.673281 -0.05655,-0.728815 0.05557,-0.05557 0.171893,0.181538 0.258561,0.526848 0.08665,0.345309 0.112138,0.67328 0.05655,0.728824 -0.05557,0.05557 -0.171894,-0.181547 -0.258561,-0.526857 z m 26.558263,-0.690041 c 0.002,-0.647971 0.0476,-0.885079 0.1017,-0.526919 0.0541,0.35817 0.0527,0.888321 -0.004,1.178123 -0.0559,0.289802 -0.10025,-0.0036 -0.0985,-0.651204 z M 99.711974,18.713025 c 0.388786,-0.178021 0.865916,-0.320392 1.060306,-0.316376 0.19439,0.0036 -0.0176,0.150209 -0.47125,0.32488 -1.075786,0.414292 -1.499036,0.408174 -0.589056,-0.0089 z m -5.537159,-1.28742 c -0.158795,-0.661961 -0.241874,-1.250417 -0.184603,-1.307679 0.05726,-0.05726 0.230056,0.441471 0.383978,1.108303 0.153923,0.666833 0.237002,1.255289 0.184611,1.30768 -0.05236,0.05236 -0.225184,-0.446351 -0.383986,-1.108304 z m 7.238025,0.933196 c 0.3004,-0.269996 1.53398,-0.504201 1.38487,-0.262934 -0.0741,0.119841 -0.45739,0.265267 -0.85183,0.323152 -0.39444,0.05789 -0.6343,0.03081 -0.53304,-0.0602 z m 8.90222,0.08603 c -0.78298,-0.173256 -1.13323,-0.317935 -1.02696,-0.424204 0.0555,-0.05548 0.62728,0.04364 1.27075,0.220108 1.06556,0.29226 0.87514,0.451677 -0.24379,0.204096 z m -6.65189,-0.475597 c 0.22925,-0.05976 0.54735,-0.05584 0.70687,0.0089 0.15952,0.06457 -0.0281,0.11342 -0.41683,0.10862 -0.38879,-0.0045 -0.5193,-0.05762 -0.29004,-0.117347 z m 4.24123,0 c 0.22925,-0.05976 0.54735,-0.05584 0.70687,0.0089 0.15953,0.06457 -0.0281,0.11342 -0.41683,0.10862 -0.38877,-0.0045 -0.51929,-0.05762 -0.29004,-0.117347 z M 121.09063,16.0119 c 0,-0.453574 0.0485,-0.639128 0.10775,-0.412341 0.0593,0.226787 0.0593,0.597895 0,0.824682 -0.0593,0.226796 -0.10775,0.04123 -0.10775,-0.412341 z m -0.27169,-2.493684 c 0.0113,-0.274484 0.0671,-0.330322 0.14235,-0.142354 0.068,0.170086 0.0597,0.373318 -0.0186,0.451615 -0.0783,0.07828 -0.13398,-0.06083 -0.12375,-0.309261 z"
         id="path954" />
    </g>
  </g>
</svg>
