<?xml version="1.0" encoding="UTF-8" standalone="no"?>
<svg
   width="16"
   height="16"
   fill="currentColor"
   class="bi bi-bank"
   viewBox="0 0 16 16"
   version="1.1"
   id="svg4"
   sodipodi:docname="bank-white.svg"
   inkscape:version="1.1.2 (b8e25be833, 2022-02-05)"
   xmlns:inkscape="http://www.inkscape.org/namespaces/inkscape"
   xmlns:sodipodi="http://sodipodi.sourceforge.net/DTD/sodipodi-0.dtd"
   xmlns="http://www.w3.org/2000/svg"
   xmlns:svg="http://www.w3.org/2000/svg">
  <defs
     id="defs8" />
  <sodipodi:namedview
     id="namedview6"
     pagecolor="#ffffff"
     bordercolor="#666666"
     borderopacity="1.0"
     inkscape:pageshadow="2"
     inkscape:pageopacity="0.0"
     inkscape:pagecheckerboard="0"
     showgrid="false"
     inkscape:zoom="51.9375"
     inkscape:cx="8"
     inkscape:cy="8.009627"
     inkscape:window-width="1920"
     inkscape:window-height="1017"
     inkscape:window-x="1912"
     inkscape:window-y="-8"
     inkscape:window-maximized="1"
     inkscape:current-layer="svg4" />
  <path
     d="m8 0 6.61 3h.89a.5.5 0 0 1 .5.5v2a.5.5 0 0 1-.5.5H15v7a.5.5 0 0 1 .485.38l.5 2a.498.498 0 0 1-.485.62H.5a.498.498 0 0 1-.485-.62l.5-2A.501.501 0 0 1 1 13V6H.5a.5.5 0 0 1-.5-.5v-2A.5.5 0 0 1 .5 3h.89L8 0ZM3.777 3h8.447L8 1 3.777 3ZM2 6v7h1V6H2Zm2 0v7h2.5V6H4Zm3.5 0v7h1V6h-1Zm2 0v7H12V6H9.5ZM13 6v7h1V6h-1Zm2-1V4H1v1h14Zm-.39 9H1.39l-.25 1h13.72l-.25-1Z"
     id="path2"
     style="fill:#ffffff;fill-opacity:0.55000001" />
</svg>
